<!DOCTYPE svg PUBLIC "-//W3C//DTD SVG 1.1//EN" "http://www.w3.org/Graphics/SVG/1.1/DTD/svg11.dtd">
<svg version="1.1" id="powerlab_logo_svg" xmlns="http://www.w3.org/2000/svg" xmlns:xlink="http://www.w3.org/1999/xlink" x="0px" y="0px"
     width="705.659px" height="190.146px" viewBox="0 0 705.659 190.146" enable-background="new 0 0 705.659 190.146"
     xml:space="preserve">
<path fill="#CCCCCC" d="M623.027,183.615c0,0,11.025-38.418,15.881-50.381c4.842-11.928,7.909-17.698,11.138-18.52
    c3.198-0.816,6.084,0.439,10.154,8.707c3.317,6.74,6.136,15.831,6.136,15.831s-4.677-32.586-7.321-44.382
    c-2.693-12.015-3.962-15.768-5.569-20.303c-2.532-7.135-5.656-11.223-10.193-0.207c-4.538,11.014-8.436,28.145-11.922,48.515
    C627.841,143.238,623.027,183.615,623.027,183.615z"/>
<path fill="#666666" d="M662.352,73.171c0,0,11.024,38.416,15.882,50.379c4.843,11.928,7.909,17.696,11.138,18.521
    c3.2,0.815,6.084-0.441,10.153-8.708c3.319-6.739,6.135-15.832,6.135-15.832s-4.674,32.587-7.32,44.384
    c-2.69,12.014-3.96,15.766-5.568,20.301c-2.532,7.139-5.656,11.226-10.194,0.209c-4.539-11.016-8.436-28.145-11.922-48.514
    C667.165,113.545,662.352,73.171,662.352,73.171z"/>
<path fill="#666666" d="M580.428,51.541c17.368,67.963,16.093,62.914,19.589,72.623c4.362,12.113,7.909,17.695,11.139,18.521
    c3.198,0.814,6.083-0.439,10.153-8.709c3.318-6.741,6.134-15.83,6.134-15.83s-4.674,32.583-7.318,44.383
    c-2.693,12.015-3.947,15.771-5.571,20.302c-2.891,8.067-5.656,11.224-10.193,0.208c-4.538-11.016-8.434-28.146-11.921-48.515
    C588.948,114.158,580.428,51.541,580.428,51.541z"/>
<path fill="#666666" d="M574.762,41.836c1.676,1.018,4.057-9.729,4.057-9.729L552.713,0C552.713,0,564.767,35.551,574.762,41.836z"
    />
<path fill="#666666" d="M581.812,39.941c-2.917,1.249,8.191,17.179,8.191,17.179h67.646
    C657.648,57.12,599.399,32.723,581.812,39.941z"/>
<path fill="#666666" d="M576.245,46.736c-0.056-2.744-14.571,1.827-14.571,1.827l-18.434,53.886
    C543.24,102.449,576.301,63.192,576.245,46.736z"/>
<g>
    <path fill="#CCCCCC" d="M0,111.576h26.351c21.494,0,31.837,6.269,31.837,22.175c0,15.626-10.343,22.27-31.837,22.27h-7.195v26.854
        H0V111.576z M26.441,141.517c8.274,0,12.051-1.591,12.051-7.859c0-6.737-3.957-8.328-12.051-8.328h-7.285v16.188H26.441z"/>
    <path fill="#CCCCCC" d="M83,131.505c14.75,0,25.362,11.041,25.362,26.479c0,15.345-10.612,26.386-25.362,26.386
        s-25.362-11.041-25.362-26.386S68.25,131.505,83,131.505z M83,172.488c5.396,0,7.645-4.865,7.645-14.784
        c0-9.918-2.249-14.689-7.645-14.689s-7.645,4.771-7.645,14.689C75.355,167.623,77.604,172.488,83,172.488z"/>
    <path fill="#CCCCCC" d="M108.271,132.628h16.908l8.184,26.198l8.454-26.198h10.343l8.184,26.198l8.454-26.198h12.321
        l-16.548,50.245h-12.142l-7.824-24.608l-7.645,24.608H124.37L108.271,132.628z"/>
    <path fill="#CCCCCC" d="M206.751,184.464c-15.559,0-25.542-10.199-25.542-26.105c0-16.374,10.163-26.854,25.542-26.854
        c15.019,0,24.642,10.105,24.642,26.947c0,0.936,0,1.871-0.09,2.9h-32.287c0,0.094,0,0.188,0,0.281
        c0,6.924,3.867,10.947,10.342,10.947c4.857,0,8.364-2.246,10.792-7.018l10.792,5.146
        C226.177,179.786,218.083,184.464,206.751,184.464z M214.396,151.809c0-6.269-2.878-9.824-7.645-9.824
        c-4.677,0-7.195,3.368-7.375,9.824H214.396z"/>
    <path fill="#CCCCCC" d="M236.97,132.628h16.908v7.766c4.317-5.521,9.893-8.421,17.088-8.889v18.713
        c-3.058-1.59-6.116-2.339-9.443-2.339c-3.058,0-5.666,1.123-7.645,3.368v31.626H236.97V132.628z"/>
    <path fill="#666666" d="M276.63,111.576h19.516v55.953h28.15v15.345H276.63V111.576z"/>
    <path fill="#666666" d="M372.62,182.874h-16.639c-0.449-1.217-0.629-2.714-0.629-4.304c-4.496,3.648-9.443,5.427-14.929,5.427
        c-8.004,0-13.4-5.708-13.4-14.316c0-11.695,9.713-18.339,28.33-18.433v-4.397c0-2.713-2.068-4.491-5.576-4.491
        c-3.328,0-5.756,2.152-6.475,5.988l-14.12-3.181c2.698-8.982,9.533-13.193,21.045-13.193c14.66,0,21.674,4.771,21.674,14.971v30.69
        C371.9,179.505,372.171,181.189,372.62,182.874z M355.353,159.95c-7.734,0.468-11.782,3.182-11.782,7.673
        c0,3.555,1.799,5.52,5.126,5.52c2.339,0,4.407-0.842,6.655-2.525V159.95z"/>
    <path fill="#666666" d="M379.364,175.576v-64h16.729v26.76c3.957-4.304,7.734-6.362,12.771-6.362
        c11.691,0,18.886,9.17,18.886,25.356c0,16.749-7.914,26.573-20.415,26.573c-6.386,0-11.241-2.526-15.019-7.767l-2.789,6.737
        h-10.611C379.185,179.973,379.364,177.541,379.364,175.576z M402.028,174.171c6.025,0,7.914-4.959,7.914-16.468
        c0-10.386-1.619-15.157-6.926-15.157c-2.338,0-4.406,1.216-6.924,3.648v19.649C396.093,171.365,398.071,174.171,402.028,174.171z"
        />
    <path fill="#CCCCCC" d="M435.753,111.576h23.113c10.703,0,18.977,1.123,26.082,6.456c8.903,6.644,12.95,16.094,12.95,29.1
        c0,12.257-4.497,22.362-12.86,29.005c-6.926,5.521-14.57,6.737-24.553,6.737h-24.732V111.576z M460.755,168.838
        c10.793,0,16.729-7.859,16.729-22.362c0-14.315-5.217-21.521-15.469-21.521h-6.926v43.883H460.755z"/>
    <path fill="#CCCCCC" d="M504.915,111.576h19.336v28.538l20.505-28.538h18.347L546.555,134.5l21.225,48.374h-21.495l-12.771-30.409
        l-9.263,12.632v17.777h-19.336V111.576z"/>
</g>
</svg>
