<?xml version="1.0" encoding="utf-8"?>
<!-- Generator: Adobe Illustrator 16.0.0, SVG Export Plug-In . SVG Version: 6.00 Build 0)  -->
<!DOCTYPE svg PUBLIC "-//W3C//DTD SVG 1.1//EN" "http://www.w3.org/Graphics/SVG/1.1/DTD/svg11.dtd">
<svg version="1.1" id="Layer_1" xmlns="http://www.w3.org/2000/svg" xmlns:xlink="http://www.w3.org/1999/xlink" x="0px" y="0px"
	 width="321.319px" height="208.227px" viewBox="131.09 307.486 321.319 208.227"
	 enable-background="new 131.09 307.486 321.319 208.227" xml:space="preserve">
<g id="foot_right">
	<path fill="#28394B" d="M452.409,448.824v4.83h-44.522v13.651c4.305,1.05,8.19,3.149,11.235,6.09l0,0h0.104v5.671h-34.441v-1.261
		l0,0v-4.305l0,0l0,0l0,0c3.15-2.94,6.93-5.041,11.235-6.091v-13.65h-19.636l-2.311-4.83h78.335V448.824z"/>
</g>
<g id="right_cell1">
	<path fill="#28394B" d="M379.955,434.123c1.05,5.985,1.994,10.816,1.994,11.446h-9.45l-5.565-11.446H379.955z"/>
</g>
<g id="right_cell2">
	<polygon fill="#28394B" points="416.497,445.464 387.515,445.464 384.365,434.123 410.722,434.123 	"/>
</g>
<g id="right_cell3">
	<polygon fill="#28394B" points="415.237,434.123 442.538,434.123 452.409,445.464 422.167,445.464 	"/>
</g>
<g id="right_cell4">
	<path fill="#28394B" d="M378.17,423.728c0.42,2.521,0.84,5.146,1.364,7.666h-13.756l-3.675-7.666H378.17z"/>
</g>
<g id="right_cell5">
	<polygon fill="#28394B" points="381.53,423.728 405.471,423.728 409.357,431.394 383.63,431.288 	"/>
</g>
<g id="right_cell6">
	<polygon fill="#28394B" points="408.937,423.728 433.403,423.728 440.123,431.394 413.557,431.394 	"/>
</g>
<g id="right_cell7">
	<path fill="#28394B" d="M376.805,415.537c0.314,1.785,0.63,3.99,1.05,6.301h-16.696l-3.045-6.301H376.805z"/>
</g>
<g id="right_cell8">
	<polygon fill="#28394B" points="379.324,415.537 401.271,415.537 404.527,421.942 381.005,421.838 	"/>
</g>
<g id="right_cell9">
	<polygon fill="#28394B" points="403.791,415.537 425.948,415.642 431.723,421.942 407.781,421.942 	"/>
</g>
<g id="right_cell10">
	<path fill="#28394B" d="M375.965,410.182c0.104,0.42,0.314,1.785,0.63,3.99h-19.111l-1.891-3.99H375.965z"/>
</g>
<g id="right_cell11">
	<polygon fill="#28394B" points="379.01,414.172 377.959,410.182 398.541,410.287 400.536,414.277 	"/>
</g>
<g id="right_cell12">
	<polygon fill="#28394B" points="400.536,410.287 421.117,410.287 424.792,414.277 402.951,414.277 	"/>
</g>
<g id="foot_center">
	<path fill="#28394B" d="M371.764,475.076v-7.666H210.685v7.666h71.194v21.736c-6.825,1.68-13.021,5.04-17.956,9.66v0.105h-0.104
		v9.135h54.918v-2.1l0,0v-6.931l0,0v-0.104h-0.105c-4.936-4.621-11.131-8.086-18.061-9.766v-21.736H371.764z"/>
</g>
<g id="center_cell1">
	<polygon fill="#28394B" points="263.609,440.949 220.87,440.949 210.685,462.055 259.093,462.055 	"/>
</g>
<g id="center_cell2">
	<polygon fill="#28394B" points="270.644,440.949 268.019,462.055 314.326,462.055 311.806,440.949 	"/>
</g>
<g id="center_cell3">
	<path fill="#28394B" d="M323.251,462.055h48.513l-10.186-21.105h-42.842C321.046,451.869,322.937,460.9,323.251,462.055z"/>
</g>
<g id="center_cell4">
	<polygon fill="#28394B" points="267.703,421.732 230.112,421.732 223.391,435.908 264.658,435.908 	"/>
</g>
<g id="center_cell5">
	<polygon fill="#28394B" points="271.274,435.908 311.281,435.908 309.601,421.732 272.953,421.732 	"/>
</g>
<g id="center_cell6">
	<path fill="#28394B" d="M317.686,435.908h41.478l-6.825-14.07h-37.592C315.796,426.353,316.741,431.184,317.686,435.908z"/>
</g>
<g id="center_cell7">
	<polygon fill="#28394B" points="270.854,406.717 237.461,406.717 231.791,418.373 268.439,418.373 	"/>
</g>
<g id="center_cell8">
	<polygon fill="#28394B" points="307.816,406.717 274.739,406.717 273.373,418.373 309.181,418.373 	"/>
</g>
<g id="center_cell9">
	<path fill="#28394B" d="M314.115,418.373h36.647l-5.67-11.656H311.7C312.331,410.077,313.171,414.067,314.115,418.373z"/>
</g>
<g id="center_cell10">
	<polygon fill="#28394B" points="272.953,396.951 242.187,396.951 238.616,404.302 271.378,404.302 	"/>
</g>
<g id="center_cell11">
	<polygon fill="#28394B" points="306.66,396.951 275.894,396.951 275.054,404.302 307.5,404.302 	"/>
</g>
<g id="center_cell12">
	<path fill="#28394B" d="M343.938,404.302l-3.57-7.351h-30.767c0.104,0.735,0.735,3.36,1.47,7.351H343.938z"/>
</g>
<g id="foot_left">
	<path fill="#28394B" d="M131.09,448.824v4.83h44.522v13.651c-4.305,1.05-8.19,3.149-11.235,6.09l0,0h-0.104v5.671h34.441v-1.261
		l0,0v-4.305l0,0l0,0l0,0c-3.15-2.94-6.93-5.041-11.235-6.091v-13.65h19.636l2.311-4.83H131.09V448.824z"/>
</g>
<g id="left_cell1">
	<polygon fill="#28394B" points="168.263,434.123 140.856,434.123 131.09,445.464 161.332,445.464 	"/>
</g>
<g id="left_cell2">
	<polygon fill="#28394B" points="167.002,445.464 195.879,445.464 199.134,434.123 172.673,434.123 	"/>
</g>
<g id="left_cell3">
	<path fill="#28394B" d="M203.544,434.123c-1.05,5.985-1.995,10.816-1.995,11.446H211l5.565-11.446H203.544z"/>
</g>
<g id="left_cell4">
	<polygon fill="#28394B" points="174.563,423.728 150.097,423.728 143.271,431.394 169.943,431.394 	"/>
</g>
<g id="left_cell5">
	<polygon fill="#28394B" points="201.97,423.728 178.029,423.728 174.143,431.394 199.869,431.288 	"/>
</g>
<g id="left_cell6">
	<path fill="#28394B" d="M205.329,423.728c-0.42,2.521-0.84,5.146-1.364,7.666h13.756l3.675-7.666H205.329z"/>
</g>
<g id="left_cell7">
	<polygon fill="#28394B" points="179.708,415.537 157.447,415.642 151.777,421.942 175.718,421.942 	"/>
</g>
<g id="left_cell8">
	<polygon fill="#28394B" points="204.175,415.537 182.229,415.537 178.973,421.942 202.494,421.838 	"/>
</g>
<g id="left_cell9">
	<path fill="#28394B" d="M206.695,415.537c-0.314,1.785-0.63,3.99-1.05,6.301h16.696l3.045-6.301H206.695z"/>
</g>
<g id="left_cell10">
	<polygon fill="#28394B" points="182.963,410.287 162.382,410.287 158.707,414.277 180.444,414.277 	"/>
</g>
<g id="left_cell11">
	<polygon fill="#28394B" points="204.49,414.172 205.539,410.182 184.958,410.287 182.859,414.277 	"/>
</g>
<g id="left_cell12">
	<path fill="#28394B" d="M207.534,410.182c-0.104,0.42-0.314,1.785-0.63,3.99h19.111l1.891-3.99H207.534z"/>
</g>
<g id="sun3">
	<path fill="#28394B" d="M224.651,367.969c17.852,5.146,25.622,10.186,27.407,14.911c0.524,1.26,0.314,3.36-0.21,5.775h9.766
		c-2.94-5.041-4.621-10.816-4.621-17.116c0-18.796,15.227-33.917,33.917-33.917c18.691,0,33.917,15.226,33.917,33.917
		c0,6.195-1.68,12.076-4.62,17.116h9.766c-0.525-2.52-0.63-4.515-0.21-5.775c1.785-4.725,9.556-9.871,27.406-14.911
		c-17.851-5.145-25.621-10.186-27.406-14.911c-1.785-4.726,4.936-21.106,8.085-27.302c-10.08,4.095-26.041,9.346-31.396,7.036
		s-15.541-21.736-15.541-25.307c0,3.57-10.186,22.997-15.541,25.307c-5.354,2.31-21.315-2.94-31.396-7.036
		c3.045,6.3,9.871,22.576,8.086,27.302C250.377,357.679,242.607,362.824,224.651,367.969z"/>
</g>
</svg>
