<?xml version="1.0" encoding="utf-8"?>
<!-- Generator: Adobe Illustrator 16.0.0, SVG Export Plug-In . SVG Version: 6.00 Build 0)  -->
<!DOCTYPE svg PUBLIC "-//W3C//DTD SVG 1.1//EN" "http://www.w3.org/Graphics/SVG/1.1/DTD/svg11.dtd">
<svg version="1.1" id="windmills" xmlns="http://www.w3.org/2000/svg" xmlns:xlink="http://www.w3.org/1999/xlink" x="0px" y="0px"
	 width="286.666px" height="266.506px" viewBox="123.005 258.238 286.666 266.506"
	 enable-background="new 123.005 258.238 286.666 266.506" xml:space="preserve">
<g id="pillar_m3">
	<path fill="#28394B" d="M342.573,453.234l-1.995,54.604c0,1.575,1.261,2.73,2.73,2.73h5.46c1.575,0,2.73-1.261,2.73-2.73
		l-1.891-55.969L342.573,453.234z"/>
</g>
<g id="propeller_m3">
	<g id="guide_m3">
		<circle fill="none" cx="346.037" cy="447.984" r="51.348"/>
	</g>
	<path fill="#28394B" d="M383.84,480.641c-0.315,1.365-1.47,2.416-2.625,2.416c-4.83,0-20.477-12.496-28.877-20.582
		c-2.415-2.31-6.825-6.825-8.716-8.715l-42.107,10.186c-1.154,0.314-2.31,0-3.149-0.84c-0.735-0.735-1.155-1.785-0.945-2.73
		c0-0.21,0.105-0.42,0.315-0.63c2.52-4.2,21.421-11.446,32.656-14.701c2.835-0.84,7.98-2.205,11.131-3.045l12.286-40.743
		c0.42-1.365,1.47-2.31,2.939-2.415c1.155-0.105,2.205,0.315,2.73,1.26c1.995,3.465,0.42,16.486-1.891,27.932
		c-0.42,1.785-0.84,3.675-1.26,5.565c-0.735,3.045-2.415,8.925-3.36,12.601l30.242,31.502
		C383.84,478.436,384.156,479.591,383.84,480.641z"/>
	<path fill="#FFFFFF" d="M298.365,460.585c0-0.105,0.104-0.315,0.21-0.42c2.1-3.466,19.11-10.501,32.132-14.281
		c2.835-0.84,8.085-2.205,11.551-3.15l12.391-41.267c0.63-2.1,3.255-2.205,3.99-1.05c1.68,3.045,0.42,15.436-1.995,27.301
		c-0.42,1.891-0.841,3.676-1.261,5.565c-0.734,3.255-2.625,9.871-3.465,13.021l30.557,31.922c0.63,0.735,0.735,1.575,0.63,2.311
		c-0.21,0.945-0.944,1.785-1.785,1.68c-4.095,0-18.48-10.92-28.352-20.371c-2.31-2.205-6.51-6.51-9.03-9.03l-42.527,10.291
		C299.415,463.63,298.05,461.845,298.365,460.585 M296.58,460.27c-0.21,1.261,0.21,2.521,1.155,3.57
		c1.05,1.051,2.52,1.471,3.989,1.051l41.583-10.081c1.995,1.995,6.09,6.195,8.295,8.296c8.296,7.875,24.151,20.791,29.507,20.791
		c1.681,0,3.15-1.261,3.57-3.15c0.315-1.365,0-2.73-1.05-3.78l0,0l0,0l-29.927-31.187c1.05-3.57,2.521-9.241,3.255-12.076
		c0.42-1.89,0.84-3.78,1.261-5.565c1.26-6.09,2.205-12.181,2.625-17.116c0.734-8.715-0.42-10.71-0.735-11.446
		c-0.63-1.155-2.101-1.89-3.57-1.68c-1.785,0.21-3.15,1.365-3.675,3.045l-12.181,40.322c-3.15,0.84-7.98,2.101-10.711,2.835
		c-6.615,1.995-13.756,4.516-19.321,6.931c-2.415,1.05-11.971,5.146-13.756,8.19C296.79,459.64,296.685,459.955,296.58,460.27
		L296.58,460.27z"/>
	<path fill="#FFFFFF" d="M349.503,448.93c0.524-1.681-0.21-3.57-1.891-4.201c-1.785-0.734-3.78,0-4.515,1.681
		c0,0.104-0.105,0.21-0.105,0.314c-0.524,1.681,0.21,3.57,1.891,4.306c1.68,0.735,3.78,0,4.515-1.785
		C349.398,449.14,349.503,449.034,349.503,448.93"/>
	<path fill="#FFFFFF" d="M347.823,448.404c0,0,0,0.104-0.104,0.104c-0.42,0.841-1.365,1.155-2.205,0.841
		c-0.735-0.315-1.155-1.261-0.84-1.995v-0.105c0.21-0.42,0.524-0.735,0.944-0.84c0.42-0.21,0.841-0.105,1.261,0
		C347.718,446.724,348.033,447.564,347.823,448.404L347.823,448.404z"/>
</g>
<g id="pillar_m2">
	<path fill="#28394B" d="M197.244,415.222l-3.15,84.53c0,2.311,1.891,4.306,4.306,4.306h8.505c2.311,0,4.306-1.891,4.306-4.306
		l-2.94-86.63L197.244,415.222z"/>
</g>
<g id="propeller_m2">
	<g id="guide_m2">
		<circle fill="none" cx="202.6" cy="408.607" r="79.594"/>
	</g>
	<path fill="#28394B" d="M261.298,459.325c-0.42,2.205-2.205,3.78-4.096,3.78c-7.455-0.105-31.712-19.427-44.837-31.922
		c-3.676-3.466-10.605-10.606-13.441-13.441l-65.209,15.751c-1.784,0.42-3.569-0.104-4.935-1.365
		c-1.155-1.154-1.785-2.835-1.471-4.2c0.105-0.314,0.21-0.734,0.42-1.05c3.886-6.51,33.287-17.746,50.613-22.891
		c4.306-1.26,12.391-3.36,17.221-4.621l19.007-63.214c0.63-2.1,2.31-3.465,4.515-3.78c1.785-0.21,3.466,0.525,4.2,1.89
		c3.046,5.355,0.631,25.621-3.045,43.367c-0.63,2.73-1.26,5.67-1.995,8.611c-1.155,4.725-3.675,13.861-5.25,19.426l46.938,48.933
		C261.193,455.859,261.614,457.645,261.298,459.325z"/>
	<path fill="#FFFFFF" d="M128.571,428.243c0-0.21,0.104-0.42,0.21-0.63c3.255-5.461,29.611-16.276,49.878-22.262
		c4.305-1.26,12.601-3.465,17.956-4.83l19.321-64.054c1.05-3.255,5.145-3.465,6.195-1.575c2.729,4.725,0.63,23.941-3.15,42.317
		c-0.63,2.94-1.26,5.775-1.891,8.61c-1.26,5.041-3.99,15.226-5.46,20.161l47.463,49.458c0.945,1.05,1.155,2.415,0.945,3.465
		c-0.315,1.471-1.471,2.73-2.73,2.73c-6.301-0.104-28.667-17.011-43.893-31.502c-3.57-3.36-10.186-10.08-13.966-13.965
		l-66.049,15.96C130.25,432.863,128.151,430.133,128.571,428.243 M125.84,427.613c-0.42,1.89,0.315,3.99,1.89,5.46
		c1.681,1.575,3.886,2.205,6.195,1.68l64.475-15.646c3.045,3.15,9.45,9.66,12.915,12.916c12.916,12.285,37.383,32.236,45.783,32.342
		c2.625,0,4.936-1.995,5.46-4.936c0.42-2.1-0.104-4.305-1.575-5.985l0,0l0,0l-46.412-48.303c1.575-5.565,3.885-14.281,5.04-18.796
		c0.735-2.94,1.365-5.88,1.995-8.611c1.995-9.556,3.465-19.006,4.096-26.566c1.154-13.546-0.631-16.591-1.155-17.641
		c-1.051-1.89-3.256-2.835-5.565-2.625c-2.73,0.315-4.83,2.1-5.671,4.725l-18.796,62.479c-4.936,1.26-12.391,3.255-16.485,4.516
		c-10.291,3.045-21.212,6.93-30.032,10.815c-3.78,1.68-18.586,7.98-21.421,12.601C126.156,426.668,125.945,427.193,125.84,427.613
		L125.84,427.613z"/>
	<path fill="#FFFFFF" d="M207.955,410.182c0.84-2.625-0.315-5.46-2.836-6.616c-2.729-1.155-5.88,0-7.035,2.73
		c-0.104,0.105-0.104,0.315-0.21,0.42c-0.945,2.625,0.315,5.46,2.835,6.615c2.73,1.155,5.881,0,7.036-2.73
		C207.85,410.497,207.85,410.287,207.955,410.182"/>
	<path fill="#FFFFFF" d="M205.329,409.237c0,0.105,0,0.105-0.104,0.21c-0.525,1.26-2.101,1.89-3.36,1.26
		c-1.155-0.525-1.785-1.89-1.365-3.15c0-0.105,0-0.105,0.105-0.21c0.314-0.63,0.734-1.05,1.365-1.365
		c0.63-0.21,1.364-0.21,1.995,0.105C205.119,406.612,205.75,407.977,205.329,409.237L205.329,409.237z"/>
</g>
<g id="pillar_m1">
	<path fill="#28394B" d="M283.244,390.126l-4.726,128.212c0,3.57,2.836,6.406,6.405,6.406h12.916c3.57,0,6.405-2.836,6.405-6.406
		l-4.41-131.362L283.244,390.126z"/>
</g>
<g id="propeller_m1">
	<g id="guide_m1">
		<circle fill="none" cx="289.124" cy="378.785" r="120.547"/>
	</g>
	<path fill="#28394B" d="M377.959,455.545c-0.734,3.36-3.359,5.775-6.3,5.775c-11.341-0.105-47.988-29.402-67.834-48.303
		c-5.565-5.355-16.171-16.066-20.371-20.371l-98.811,23.836c-2.73,0.63-5.461-0.105-7.456-1.995c-1.785-1.785-2.625-4.2-2.205-6.405
		c0.105-0.525,0.315-1.05,0.63-1.575c5.775-9.871,50.299-26.882,76.655-34.547c6.51-1.995,18.69-5.145,26.041-7.035l28.877-95.766
		c0.944-3.15,3.57-5.355,6.825-5.67c2.73-0.315,5.25,0.84,6.405,2.835c4.62,8.086,1.05,38.748-4.516,65.629
		c-0.84,4.2-1.89,8.611-2.939,13.021c-1.681,7.14-5.565,21.106-7.876,29.507l70.984,74.029
		C377.855,450.399,378.485,453.024,377.959,455.545z"/>
	<path fill="#FFFFFF" d="M177.083,408.397c0.104-0.315,0.21-0.63,0.42-0.945c4.83-8.295,44.838-24.676,75.499-33.602
		c6.511-1.995,19.111-5.25,27.197-7.35l29.191-96.921c1.47-4.935,7.771-5.25,9.346-2.415c4.095,7.245,0.944,36.332-4.831,64.159
		c-0.944,4.41-1.89,8.715-2.939,12.916c-1.891,7.665-6.091,23.101-8.19,30.557l71.824,74.869c1.47,1.681,1.68,3.676,1.365,5.355
		c-0.421,2.311-2.206,4.096-4.201,4.096c-9.555-0.105-43.367-25.727-66.469-47.778c-5.355-5.04-15.33-15.331-21.105-21.211
		l-99.966,24.151C179.708,415.432,176.453,411.337,177.083,408.397 M172.988,407.557c-0.63,2.835,0.525,6.09,2.836,8.295
		c2.52,2.416,5.985,3.36,9.345,2.625l97.656-23.626c4.62,4.725,14.28,14.596,19.531,19.636
		c19.53,18.586,56.703,48.828,69.304,48.933c3.885,0.105,7.455-3.045,8.296-7.455c0.63-3.15-0.105-6.511-2.416-9.03l0,0l0,0
		l-70.249-73.19c2.415-8.505,5.985-21.526,7.561-28.457c1.05-4.41,2.101-8.82,2.94-13.126c3.045-14.386,5.146-28.667,6.195-40.322
		c1.68-20.476-0.945-25.201-1.785-26.776c-1.575-2.835-4.936-4.306-8.506-3.885c-4.095,0.42-7.35,3.15-8.61,7.14l-28.456,94.611
		c-7.456,1.89-18.796,4.935-24.991,6.72c-15.646,4.516-32.237,10.501-45.468,16.381c-5.775,2.521-28.247,12.076-32.447,19.111
		C173.407,406.087,173.093,406.822,172.988,407.557L172.988,407.557z"/>
	<path fill="#FFFFFF" d="M297.21,381.095c1.365-3.885-0.525-8.295-4.306-9.976c-4.095-1.785-8.82,0-10.605,4.095
		c-0.104,0.21-0.21,0.42-0.21,0.63c-1.365,3.885,0.42,8.296,4.306,9.976c4.095,1.785,8.82,0,10.605-4.095
		C297.105,381.515,297.105,381.305,297.21,381.095"/>
	<path fill="#FFFFFF" d="M293.22,379.73c0,0.105-0.105,0.21-0.105,0.315c-0.84,1.89-3.149,2.835-5.145,1.995
		c-1.785-0.84-2.73-2.94-2.101-4.83c0-0.105,0.105-0.21,0.105-0.315c0.42-0.945,1.154-1.68,2.1-1.995
		c0.945-0.42,1.995-0.315,2.94,0.105C293.01,375.74,293.85,377.84,293.22,379.73L293.22,379.73z"/>
</g>
</svg>
